<svg width="25" height="26" viewBox="0 0 25 26" fill="none" xmlns="http://www.w3.org/2000/svg">
<circle cx="12.5002" cy="12.9999" r="12.1974" fill="#D60000"/>
<path d="M8.59516 12.5578L9.43191 10.0475H15.5681L16.4048 12.5578M15.5681 15.347C15.1218 15.347 14.7313 14.9565 14.7313 14.5102C14.7313 14.0639 15.1218 13.6734 15.5681 13.6734C16.0144 13.6734 16.4048 14.0639 16.4048 14.5102C16.4048 14.9565 16.0144 15.347 15.5681 15.347ZM9.43191 15.347C8.98564 15.347 8.59516 14.9565 8.59516 14.5102C8.59516 14.0639 8.98564 13.6734 9.43191 13.6734C9.87818 13.6734 10.2687 14.0639 10.2687 14.5102C10.2687 14.9565 9.87818 15.347 9.43191 15.347ZM16.3491 9.76861C16.2375 9.43391 15.9028 9.21077 15.5681 9.21077H9.43191C9.04143 9.21077 8.76251 9.43391 8.65094 9.76861L7.47949 13.1156V17.5783C7.47949 17.913 7.70263 18.1361 8.03733 18.1361H8.59516C8.92986 18.1361 9.15299 17.913 9.15299 17.5783V17.0205H15.847V17.5783C15.847 17.913 16.0701 18.1361 16.4048 18.1361H16.9627C17.2974 18.1361 17.5205 17.913 17.5205 17.5783V13.1156M10.2687 5.86377L12.5 8.37402L14.7313 5.86377H10.2687Z" fill="white"/>
</svg>
