<svg width="297" height="103" viewBox="0 0 297 103" fill="none" xmlns="http://www.w3.org/2000/svg">
<path d="M189.574 14.664C189.574 14.664 172.369 0.899414 151.722 0.899414C131.075 0.899414 110.428 14.664 113.869 42.1933C113.869 42.1933 86.3397 28.4286 76.0162 52.5167C76.0162 52.5167 58.8104 45.6344 48.487 59.399C48.487 59.399 14.0754 45.6344 3.75199 66.2813C-6.57147 86.9282 17.5166 97.2517 17.5166 97.2517C17.5166 97.2517 0.310834 69.7225 24.3989 73.1636C48.487 76.6048 41.6047 93.8106 76.0162 100.693C110.428 107.575 120.751 86.9282 120.751 86.9282C120.751 86.9282 134.516 104.134 151.722 100.693C168.927 97.2517 175.81 86.9282 175.81 86.9282C175.81 86.9282 186.133 100.693 206.78 97.2517C227.427 93.8106 234.309 80.0459 234.309 80.0459C234.309 80.0459 248.074 86.9282 265.28 86.9282C282.485 86.9282 296.25 80.0459 296.25 62.8402C296.25 62.8402 284.206 81.7665 270.441 71.4431C256.677 61.1196 256.677 54.2373 239.471 57.6784C239.471 57.6784 236.03 40.4727 222.265 40.4727C222.265 40.4727 218.824 6.06114 189.574 14.664Z" fill="white"/>
<path d="M137.806 29.0715C143.175 12.9624 168.681 23.7018 160.627 43.8382C152.572 63.9747 128.938 58.0945 121.016 51.2311C110.938 42.4958 106.911 15.6473 134.724 4.22717C162.536 -7.19292 190.179 15.6473 190.179 15.6473C190.179 15.6473 201.788 9.01075 213.114 19.3909C224.42 29.7522 221.736 40.4916 221.736 40.4916C221.736 40.4916 219.051 60.628 196.229 51.2311C173.408 41.8341 198.914 17.6704 205.626 33.7795" stroke="#919191" stroke-linecap="round" stroke-linejoin="round"/>
<path d="M222.265 40.4726C222.265 40.4726 235.16 39.1302 239.187 57.9431C239.187 57.9431 250.513 52.3465 262.311 64.5418C274.109 76.7371 283.506 78.0795 295.588 63.3128C295.588 63.3128 301.411 101.808 235.387 80.5375C235.387 80.5375 209.862 110.903 180.895 91.2012C176.622 88.2895 173.881 83.487 174.013 78.3253C174.108 74.7518 175.507 70.9703 180.101 68.6636C190.841 63.2939 201.58 67.3212 202.923 78.0606C204.265 88.8 185.471 88.8 185.471 78.0606" stroke="#919191" stroke-linecap="round" stroke-linejoin="round"/>
<path d="M114.303 43.1578C114.303 43.1578 101.068 33.7041 86.8688 40.4351C86.8688 40.4351 78.039 44.5002 75.3541 52.5548C75.3541 52.5548 59.245 45.8426 48.5056 59.2669C48.5056 59.2669 0.839947 42.2691 1.18028 78.9685C1.18028 78.9685 4.20547 91.5041 17.6297 96.8738C17.6297 96.8738 3.27901 73.0315 20.5226 72.8614C37.7662 72.7101 48.5245 92.3927 63.953 97.3087C79.3814 102.244 106.249 107.613 121.016 87.4579C121.016 87.4579 122.358 75.376 110.276 72.6912C98.1943 70.0063 91.4822 79.4033 95.5095 87.4579C99.5368 95.5125 110.276 92.8276 110.276 86.1155" stroke="#919191" stroke-linecap="round" stroke-linejoin="round"/>
<path d="M176.433 87.6467C176.433 87.6467 161.969 101.374 146.881 101.147C131.774 100.901 121.034 87.4766 121.034 87.4766" stroke="white" stroke-linecap="round" stroke-linejoin="round"/>
<path d="M48.5058 59.2858C48.5058 59.2858 47.1634 67.3404 59.2452 68.6828C71.3271 70.0252 65.9574 56.601 60.5877 57.9434C55.2179 59.2858 56.5604 63.3131 57.9028 64.6555" stroke="#919191" stroke-linecap="round" stroke-linejoin="round"/>
</svg>
