<svg width="87" height="185" viewBox="0 0 87 185" fill="none" xmlns="http://www.w3.org/2000/svg">
<path d="M20.5969 137.852C23.2856 134.429 24.457 132.037 25.6339 127.884L32.3834 129.79C30.8662 135.265 29.89 137.512 27.3464 141.47L20.5969 137.852ZM46.9478 109.313H55.9898C58.6785 109.313 60.2403 109.263 61.5623 109.118C61.4173 110.44 61.3671 111.711 61.3671 113.517V123.825C61.3671 125.537 61.4173 126.808 61.5121 127.833C60.2905 127.733 58.7733 127.689 57.111 127.689H30.3697C28.7074 127.689 27.2404 127.739 26.1192 127.833C26.214 126.707 26.2642 125.537 26.2642 123.925V113.517C26.2642 111.711 26.214 110.44 26.069 109.118C27.391 109.263 29.0979 109.313 31.6415 109.313H39.1719V100.131C39.1719 98.13 39.0715 96.7585 38.8763 95.3926H47.1876C46.9924 96.4686 46.9422 97.1989 46.9422 99.4011H59.4594C61.9026 99.4011 63.5146 99.3063 65.0319 99.1056V106.336C63.3194 106.141 61.6571 106.041 59.4594 106.041H46.9422V109.313H46.9478ZM33.6998 115.959V120.943H53.9873V115.959H33.6998ZM34.8712 141.414C34.9716 139.753 34.9716 139.167 34.9716 137.896C34.9716 135.014 34.8712 133.252 34.531 129.93L41.2302 129.439C42.0112 134.523 42.2064 136.525 42.2566 140.773L34.8768 141.409L34.8712 141.414ZM46.8027 141.515C46.072 136.726 45.4807 134.183 44.1643 129.935L50.7632 128.765C52.325 133.063 53.0613 135.36 54.0877 139.658L46.8027 141.515ZM59.2697 141.319C57.6577 136.09 56.8265 134.089 54.5284 129.935L61.2778 127.934C64.6024 133.893 64.6526 133.994 66.5603 138.342L59.2753 141.325L59.2697 141.319Z" fill="black"/>
<path d="M30.6042 53.4762C28.1108 53.8664 27.1792 54.0114 24.6858 54.3069C24.0499 51.5695 23.5144 50.0085 22.4379 47.5165C27.2294 47.1263 30.8942 46.5409 35.3957 45.4148C38.5752 44.6343 39.9921 44.0935 41.3141 43.313L45.6148 49.8134C45.4511 49.8803 45.0756 50.0104 44.488 50.2037C42.5803 50.8392 40.0869 51.5249 37.984 52.01V56.994H41.0129C42.8704 56.994 43.8465 56.9438 45.0235 56.7487V63.9293C43.8019 63.7843 42.5803 63.7342 40.8678 63.7342H38.2294C40.8232 67.3969 42.3851 68.9635 45.6092 71.2604C44.1924 73.6521 43.2608 75.5141 42.2847 78.1511C40.2821 76.2444 39.2056 74.8786 37.8334 72.5315C37.9282 73.6576 37.9784 74.9733 37.9784 76.5399V83.1351C37.9784 86.2627 38.0286 87.584 38.274 89.5352H30.3029C30.4982 87.5338 30.5986 86.0174 30.5986 83.1351V77.3706C30.5986 75.7427 30.6302 74.4716 30.6934 73.5573C29.1762 77.3204 27.6645 79.7121 24.8755 82.5943C23.5535 79.0264 22.9678 77.7553 21.3557 75.1183C23.2634 73.5071 24.4348 72.0911 26.0023 69.6938C27.4693 67.3969 28.3952 65.5906 29.0311 63.7342H26.8334C25.0261 63.7342 23.8045 63.7843 22.5327 63.9795V56.7487C23.8547 56.9438 24.9759 56.994 26.984 56.994H30.6042V53.4762ZM54.5062 47.4162C54.311 49.2225 54.2608 50.6441 54.2608 53.6713V71.751C54.2608 74.7336 54.311 76.0995 54.5062 77.7107H46.7304C46.9256 76.2444 46.9758 75.2186 46.9758 71.9461V53.6713C46.9758 50.789 46.8754 49.1779 46.7304 47.4162H54.5062ZM65.8018 44.2384C65.5564 46.4852 65.5062 48.3416 65.5062 51.3744V82.1595C65.5062 85.3372 64.7253 87.2439 62.9626 88.1192C61.596 88.8495 58.8571 89.1951 54.5062 89.1951C53.6751 89.1951 52.8942 89.145 51.1315 89.0948C50.5458 86.0676 50.0549 84.4062 48.8333 81.5239C51.9124 81.8194 53.4296 81.9142 55.5326 81.9142C57.6355 81.9142 58.1264 81.6689 58.1264 80.448V51.3744C58.1264 49.0775 58.026 46.7305 57.8308 44.2384H65.8018Z" fill="black"/>
<rect x="1.81543" y="1.81677" width="83.5266" height="181.194" rx="41.7633" stroke="black" stroke-width="2"/>
</svg>
